<?xml version="1.0" encoding="UTF-8"?>
<!DOCTYPE svg PUBLIC "-//W3C//DTD SVG 1.1//EN" "http://www.w3.org/Graphics/SVG/1.1/DTD/svg11.dtd">
<svg xmlns="http://www.w3.org/2000/svg" version="1.1" width="500px" height="500px" style="shape-rendering:geometricPrecision; text-rendering:geometricPrecision; image-rendering:optimizeQuality; fill-rule:evenodd; clip-rule:evenodd" xmlns:xlink="http://www.w3.org/1999/xlink">
<g><path style="opacity:0.986" fill="#b55292" d="M 207.5,26.5 C 233.995,23.8327 258.995,28.666 282.5,41C 298.668,50.9186 315.002,60.5853 331.5,70C 367.181,80.154 384.848,66.654 384.5,29.5C 389.5,29.5 394.5,29.5 399.5,29.5C 403.049,57.5238 401.216,85.1905 394,112.5C 377.043,162.074 342.209,185.574 289.5,183C 268.447,180.436 250.113,172.103 234.5,158C 215.163,138.005 197.33,116.839 181,94.5C 174.745,88.241 167.912,82.741 160.5,78C 145.035,73.379 132.868,77.879 124,91.5C 120.568,98.9642 120.901,106.298 125,113.5C 134.259,127.427 146.093,138.593 160.5,147C 175.491,155.995 191.158,163.662 207.5,170C 233.311,178.952 259.311,187.285 285.5,195C 317.341,205.748 346.341,221.415 372.5,242C 413.186,278.749 423.02,322.582 402,373.5C 379.635,417.286 344.135,443.453 295.5,452C 266.451,456.422 238.784,452.088 212.5,439C 194.5,429.333 176.5,419.667 158.5,410C 143.793,403.537 129.46,404.203 115.5,412C 109.807,416.881 106.307,423.048 105,430.5C 103.893,436.787 103.393,443.12 103.5,449.5C 98.57,449.803 93.7367,449.469 89,448.5C 83.8721,414.817 87.5387,382.15 100,350.5C 118.52,313.561 148.687,295.227 190.5,295.5C 207.245,296.248 222.911,300.748 237.5,309C 255.059,320.389 270.559,334.222 284,350.5C 296.08,366.582 309.58,381.415 324.5,395C 340.12,408.22 354.954,407.387 369,392.5C 373.569,386.386 374.569,379.719 372,372.5C 366.653,360.987 358.82,351.487 348.5,344C 324.77,326.965 299.103,313.298 271.5,303C 244.94,294.026 218.273,285.36 191.5,277C 167.255,268.38 144.922,256.38 124.5,241C 94.1826,213.156 81.6826,178.656 87,137.5C 96.5453,87.604 125.045,53.4373 172.5,35C 184.037,31.0648 195.704,28.2315 207.5,26.5 Z"/></g>
</svg>
